<svg xmlns="http://www.w3.org/2000/svg" width="128" height="128" viewBox="0 0 128 128">
  <defs>
    <linearGradient id="g" x1="0" y1="0" x2="1" y2="1">
      <stop offset="0%" stop-color="#2563eb"/>
      <stop offset="100%" stop-color="#7c3aed"/>
    </linearGradient>
  </defs>
  <path d="M64 8 C64 8 112 24 112 56 C112 88 88 112 64 120 C40 112 16 88 16 56 C16 24 64 8 64 8Z" fill="url(#g)"/>
  <path d="M56 52 L56 48 C56 42.5 59.6 38 64 38 C68.4 38 72 42.5 72 48 L72 52" fill="none" stroke="#fff" stroke-width="3.5" stroke-linecap="round"/>
  <rect x="48" y="52" width="32" height="24" rx="4" fill="#fff"/>
  <circle cx="64" cy="64" r="3.5" fill="#2563eb"/>
  <line x1="64" y1="67" x2="64" y2="72" stroke="#2563eb" stroke-width="3" stroke-linecap="round"/>
</svg>
